<svg xmlns="http://www.w3.org/2000/svg" width="820" height="300" viewBox="0 0 820 300"><defs><linearGradient id="bg" x1="0" y1="0" x2="1" y2="1"><stop offset="0" stop-color="#1f2937"/><stop offset="1" stop-color="#0b1220"/></linearGradient><filter id="sh" x="-10%" y="-10%" width="120%" height="130%"><feDropShadow dx="0" dy="6" stdDeviation="8" flood-color="#000" flood-opacity="0.45"/></filter></defs><rect width="820" height="300" rx="14" fill="url(#bg)"/><rect x="0" y="0" width="820" height="40" rx="14" fill="#111827"/><rect x="0" y="26" width="820" height="14" fill="#111827"/><text x="22" y="25" font-family="-apple-system,'Segoe UI',Ubuntu,Cantarell,'DejaVu Sans',sans-serif" font-size="14" font-weight="600" fill="#e5e7eb">Activities</text><text x="410" y="25" font-family="-apple-system,'Segoe UI',Ubuntu,Cantarell,'DejaVu Sans',sans-serif" font-size="14" font-weight="600" fill="#e5e7eb" text-anchor="middle">Fri 2 Oct  14:32</text><rect x="635" y="5" width="34" height="30" rx="8" fill="#ffffff" fill-opacity="0.12"/><svg x="640" y="8" width="24" height="24" viewBox="0 0 24 24"><circle cx="12" cy="12" r="10.0" fill="none" stroke="#8b949e" stroke-opacity="0.25" stroke-width="2.4"/><circle cx="12" cy="12" r="10.0" fill="none" stroke="#3fb950" stroke-width="2.4" stroke-linecap="round" pathLength="100" stroke-dasharray="42.00 100" transform="rotate(-90 12 12)"/><circle cx="12" cy="12" r="6.5" fill="none" stroke="#8b949e" stroke-opacity="0.25" stroke-width="2.0"/><circle cx="12" cy="12" r="6.5" fill="none" stroke="#3fb950" stroke-width="2.0" stroke-linecap="round" pathLength="100" stroke-dasharray="17.00 100" transform="rotate(-90 12 12)"/><text x="12" y="12" text-anchor="middle" dominant-baseline="central" font-family="sans-serif" font-weight="bold" font-size="7.5" fill="#ffffff">42</text></svg><g transform="translate(690 11)" fill="none" stroke="#e5e7eb" stroke-width="2" stroke-linecap="round"><path d="M1 7a13 13 0 0 1 16 0"/><path d="M4 10.5a8 8 0 0 1 10 0"/><circle cx="9" cy="14.5" r="1.4" fill="#e5e7eb" stroke="none"/></g><g transform="translate(720 12)" fill="#e5e7eb"><path d="M0 5h4l5-4v16l-5-4H0z"/><path d="M12 4a6 6 0 0 1 0 10" fill="none" stroke="#e5e7eb" stroke-width="2" stroke-linecap="round"/></g><g transform="translate(752 13)"><rect x="0" y="0" width="24" height="13" rx="3" fill="none" stroke="#e5e7eb" stroke-width="1.6"/><rect x="2.5" y="2.5" width="15" height="8" rx="1.5" fill="#e5e7eb"/><rect x="25" y="4" width="2.5" height="5" rx="1" fill="#e5e7eb"/></g><g filter="url(#sh)"><rect x="440" y="52" width="300" height="226" rx="12" fill="#1f2937" stroke="#374151"/></g><circle cx="462" cy="78" r="6" fill="#3fb950"/><text x="476" y="82" font-family="-apple-system,'Segoe UI',Ubuntu,Cantarell,'DejaVu Sans',sans-serif" font-size="14" font-weight="600" fill="#e5e7eb">5h</text><rect x="544" y="71" width="13" height="8" rx="2" fill="#3fb950"/><rect x="560" y="71" width="13" height="8" rx="2" fill="#3fb950"/><rect x="576" y="71" width="13" height="8" rx="2" fill="#3fb950"/><rect x="592" y="71" width="13" height="8" rx="2" fill="#3fb950"/><rect x="608" y="71" width="13" height="8" rx="2" fill="#8b949e" fill-opacity="0.25"/><rect x="624" y="71" width="13" height="8" rx="2" fill="#8b949e" fill-opacity="0.25"/><rect x="640" y="71" width="13" height="8" rx="2" fill="#8b949e" fill-opacity="0.25"/><rect x="656" y="71" width="13" height="8" rx="2" fill="#8b949e" fill-opacity="0.25"/><rect x="672" y="71" width="13" height="8" rx="2" fill="#8b949e" fill-opacity="0.25"/><rect x="688" y="71" width="13" height="8" rx="2" fill="#8b949e" fill-opacity="0.25"/><text x="722" y="82" font-family="'DejaVu Sans Mono',Menlo,Consolas,monospace" font-size="14" fill="#e5e7eb" text-anchor="end">42%</text><text x="476" y="104" font-family="-apple-system,'Segoe UI',Ubuntu,Cantarell,'DejaVu Sans',sans-serif" font-size="12.5" fill="#9ca3af">resets in 2h 10m</text><circle cx="462" cy="136" r="6" fill="#3fb950"/><text x="476" y="140" font-family="-apple-system,'Segoe UI',Ubuntu,Cantarell,'DejaVu Sans',sans-serif" font-size="14" font-weight="600" fill="#e5e7eb">Weekly</text><rect x="544" y="129" width="13" height="8" rx="2" fill="#3fb950"/><rect x="560" y="129" width="13" height="8" rx="2" fill="#3fb950"/><rect x="576" y="129" width="13" height="8" rx="2" fill="#8b949e" fill-opacity="0.25"/><rect x="592" y="129" width="13" height="8" rx="2" fill="#8b949e" fill-opacity="0.25"/><rect x="608" y="129" width="13" height="8" rx="2" fill="#8b949e" fill-opacity="0.25"/><rect x="624" y="129" width="13" height="8" rx="2" fill="#8b949e" fill-opacity="0.25"/><rect x="640" y="129" width="13" height="8" rx="2" fill="#8b949e" fill-opacity="0.25"/><rect x="656" y="129" width="13" height="8" rx="2" fill="#8b949e" fill-opacity="0.25"/><rect x="672" y="129" width="13" height="8" rx="2" fill="#8b949e" fill-opacity="0.25"/><rect x="688" y="129" width="13" height="8" rx="2" fill="#8b949e" fill-opacity="0.25"/><text x="722" y="140" font-family="'DejaVu Sans Mono',Menlo,Consolas,monospace" font-size="14" fill="#e5e7eb" text-anchor="end">17%</text><text x="476" y="162" font-family="-apple-system,'Segoe UI',Ubuntu,Cantarell,'DejaVu Sans',sans-serif" font-size="12.5" fill="#9ca3af">resets in 3d 4h</text><line x1="452" y1="186" x2="728" y2="186" stroke="#374151"/><text x="462" y="212" font-family="-apple-system,'Segoe UI',Ubuntu,Cantarell,'DejaVu Sans',sans-serif" font-size="14" fill="#e5e7eb">Refresh now</text><text x="462" y="246" font-family="-apple-system,'Segoe UI',Ubuntu,Cantarell,'DejaVu Sans',sans-serif" font-size="14" fill="#e5e7eb">Quit</text><svg x="40" y="82" width="96" height="96" viewBox="0 0 24 24"><circle cx="12" cy="12" r="10.0" fill="none" stroke="#8b949e" stroke-opacity="0.25" stroke-width="2.4"/><circle cx="12" cy="12" r="10.0" fill="none" stroke="#3fb950" stroke-width="2.4" stroke-linecap="round" pathLength="100" stroke-dasharray="42.00 100" transform="rotate(-90 12 12)"/><circle cx="12" cy="12" r="6.5" fill="none" stroke="#8b949e" stroke-opacity="0.25" stroke-width="2.0"/><circle cx="12" cy="12" r="6.5" fill="none" stroke="#3fb950" stroke-width="2.0" stroke-linecap="round" pathLength="100" stroke-dasharray="17.00 100" transform="rotate(-90 12 12)"/><text x="12" y="12" text-anchor="middle" dominant-baseline="central" font-family="sans-serif" font-weight="bold" font-size="7.5" fill="#ffffff">42</text></svg><text x="40" y="218" font-family="-apple-system,'Segoe UI',Ubuntu,Cantarell,'DejaVu Sans',sans-serif" font-size="30" font-weight="700" fill="#f9fafb">claude-monitoring</text><text x="40" y="246" font-family="-apple-system,'Segoe UI',Ubuntu,Cantarell,'DejaVu Sans',sans-serif" font-size="15" fill="#9ca3af">Your Claude limits, in the panel.</text></svg>
